<svg version="1.1" viewBox="0.0 0.0 960.0 720.0" fill="none" stroke="none" stroke-linecap="square" stroke-miterlimit="10" xmlns:xlink="http://www.w3.org/1999/xlink" xmlns="http://www.w3.org/2000/svg"><clipPath id="p.0"><path d="m0 0l960.0 0l0 720.0l-960.0 0l0 -720.0z" clip-rule="nonzero"/></clipPath><g clip-path="url(#p.0)"><path fill="#000000" fill-opacity="0.0" d="m0 0l960.0 0l0 720.0l-960.0 0z" fill-rule="evenodd"/><defs><radialGradient id="p.1" gradientUnits="userSpaceOnUse" gradientTransform="matrix(22.563618502386973 0.0 0.0 22.563618502386973 0.0 0.0)" spreadMethod="pad" cx="20.91968801591454" cy="15.955124576158017" fx="20.91968801591454" fy="15.955124576158017" r="22.563617706298828"><stop offset="0.0" stop-color="#ffffff"/><stop offset="1.0" stop-color="#80bb9f"/></radialGradient></defs><path fill="url(#p.1)" d="m112.02386 360.00534l0 0c0 -198.82251 161.17749 -360.0 360.0 -360.0l0 0c95.477905 0 187.04535 37.928463 254.55841 105.44156c67.51312 67.51311 105.44159 159.0805 105.44159 254.55844l0 0c0 198.82254 -161.17749 360.00003 -360.0 360.00003l0 0c-198.82251 0 -360.0 -161.17749 -360.0 -360.00003z" fill-rule="evenodd"/><path stroke="#000000" stroke-width="1.0" stroke-linejoin="round" stroke-linecap="butt" d="m112.02386 360.00534l0 0c0 -198.82251 161.17749 -360.0 360.0 -360.0l0 0c95.477905 0 187.04535 37.928463 254.55841 105.44156c67.51312 67.51311 105.44159 159.0805 105.44159 254.55844l0 0c0 198.82254 -161.17749 360.00003 -360.0 360.00003l0 0c-198.82251 0 -360.0 -161.17749 -360.0 -360.00003z" fill-rule="evenodd"/><path fill="#000000" fill-opacity="0.0" d="m120.0 27.194225l720.0 0l0 539.5276l-720.0 0z" fill-rule="evenodd"/><path fill="#000000" d="m242.89252 525.6411q-29.90625 0 -56.0 -13.171875q-26.078125 -13.1875305 -41.796875 -37.50003l21.796875 -25.328125q14.6875 21.28125 33.9375 32.421875q19.25 11.140625 42.5625 11.140625q65.859375 0 65.859375 -78.015625l0 -214.82811l-129.70312 0l0 -32.421875l166.6875 0l0 245.71873q0 56.25 -26.09375 84.125q-26.078125 27.859406 -77.25 27.859406zm475.24103 -357.70312l36.984375 0l0 354.65625l-36.984375 0l0 -354.65625zm-221.9219 354.65625l-37.484375 0l0 -354.65625l37.484375 0l0 354.65625zm225.46878 -163.65628l-229.51566 0l0 -32.921875l229.51566 0l0 32.921875z" fill-rule="nonzero"/></g></svg>